# xmcd
#
# Track frame offsets:
# 150
# 5613
# 19146
# 32554
# 43476
# 57473
# 69952
# 77986
#
# Disc length: 1238 seconds
#
#
# Revision: 0
# Processed by: cddbd v1.5.1PL2 Copyright (c) Steve Scherf et al.
# Submitted via: FreeRIP 2.91 
#
DISCID=6704d408
DTITLE=Claude Butch Morgan - Open Soon
DYEAR=2004
DGENRE=Folk/Rock
TTITLE0=Liar
TTITLE1=Grand-Pa Song
TTITLE2=Favorite Song
TTITLE3=New Shoes Bluz
TTITLE4=Barren Farm
TTITLE5=Growing Up
TTITLE6=Your Pants
TTITLE7=Old Black Crow
EXTD=
EXTT0=
EXTT1=
EXTT2=
EXTT3=
EXTT4=
EXTT5=
EXTT6=
EXTT7=
PLAYORDER=
